<?xml version="1.0" encoding="utf-8"?>
<!-- Generator: Adobe Illustrator 16.0.0, SVG Export Plug-In . SVG Version: 6.00 Build 0)  -->
<!DOCTYPE svg PUBLIC "-//W3C//DTD SVG 1.1//EN" "http://www.w3.org/Graphics/SVG/1.1/DTD/svg11.dtd">
<svg version="1.1" id="Ebene_1" xmlns="http://www.w3.org/2000/svg" xmlns:xlink="http://www.w3.org/1999/xlink" x="0px" y="0px"
	 width="814.771px" height="200.224px" viewBox="0 0 814.771 200.224" enable-background="new 0 0 814.771 200.224"
	 xml:space="preserve">
<g>
	<polygon fill="#186E8C" points="111.301,87.53 86.516,102.692 86.516,133.424 111.301,118.262 	"/>
	<polygon fill="#186E8C" points="61.729,87.53 86.516,102.692 86.516,133.424 61.729,118.262 	"/>
	<polygon fill="#22A0BF" points="111.301,87.53 86.516,72.632 61.729,87.53 86.516,102.671 	"/>
	<path fill="#22A0BF" d="M30.732,34.828"/>
	<polygon fill="#22A0BF" points="86.516,36.084 86.516,0.052 0,53.237 0,53.411 0,144.803 0,147.038 86.516,200.224 86.516,169.491 
		86.516,164.191 30.996,130.059 30.996,70.215 	"/>
	<polygon fill="#186E8C" points="173.295,53.411 173.031,53.411 173.031,53.186 86.516,0 86.516,36.032 142.299,70.327 
		142.299,129.898 86.516,164.191 86.516,200.224 173.031,147.038 173.031,144.803 173.295,144.803 	"/>
</g>
<g>
	<path fill="#FFFFFF" d="M248.59,154.419v12.026c-3.268,2.604-7.857,4.355-12.311,4.355c-9.611,0-17.278-7.433-17.278-16.761
		c0-9.325,7.714-16.664,17.468-16.664c4.592,0,9.045,1.751,12.215,4.545l-2.176,2.841c-2.7-2.414-6.346-3.835-10.039-3.835
		c-7.572,0-13.632,5.822-13.632,13.113c0,7.339,6.104,13.164,13.679,13.164c2.985,0,6.156-1.044,8.713-2.795v-9.99H248.59z"/>
	<path fill="#FFFFFF" d="M260.951,151.201c1.658-3.646,4.733-5.635,8.949-5.682v3.739c-5.258-0.094-8.523,3.173-8.949,8.097v13.257
		h-3.694v-24.951h3.694V151.201z"/>
	<path fill="#FFFFFF" d="M289.167,166.776c-1.986,2.7-5.157,4.025-9.134,4.025c-5.163,0-8.476-3.313-8.476-7.624
		c0-4.354,3.456-7.102,9.327-7.148h8.188v-1.468c0-3.643-2.272-5.822-6.675-5.822c-2.745,0-5.303,1.041-7.906,2.839l-1.561-2.697
		c3.218-2.131,5.916-3.361,10.176-3.361c6.156,0,9.563,3.267,9.611,8.615l0.046,16.478h-3.598V166.776z M289.122,161.994v-2.982
		h-7.766c-4.167,0-6.343,1.279-6.343,4.027c0,2.743,2.225,4.543,5.729,4.543C284.954,167.582,288.174,165.452,289.122,161.994z"/>
	<path fill="#FFFFFF" d="M301.764,143.532c0-5.54,3.93-8.38,8.003-8.38c1.606,0.045,3.216,0.472,4.495,1.277l-0.094,3.457
		c-1.373-0.759-2.934-1.23-4.354-1.23c-2.462-0.049-4.403,1.466-4.403,4.4v3.22h7.15v3.031h-7.15v21.305h-3.646v-21.305h-3.219
		v-3.031h3.219V143.532z M315.777,138.512c0-1.468,0.994-2.558,2.367-2.558c1.374,0,2.416,1.09,2.416,2.558
		c0,1.469-1.042,2.557-2.416,2.557C316.771,141.069,315.777,139.981,315.777,138.512z M320.039,145.661v24.951h-3.694v-24.951
		H320.039z"/>
	<path fill="#FFFFFF" d="M332.917,163.462v7.149h-3.691v-35.13h3.691v22.962l12.833-12.783h4.354l-9.325,9.658l10.319,15.293h-4.403
		l-8.523-12.592L332.917,163.462z"/>
	<path fill="#FFFFFF" d="M358.631,168.576c0,0.757-0.285,1.372-0.709,2.036l-2.229,3.409h-2.082l1.563-3.457
		c-0.713-0.425-1.041-1.185-1.041-2.035c0-1.374,0.946-2.368,2.225-2.368C357.588,166.161,358.631,167.061,358.631,168.576z"/>
	<path fill="#FFFFFF" d="M391.391,137.471c8.195,0,12.93,4.071,12.93,11.125c0,7.339-4.734,11.552-12.93,11.552h-8.662v10.464
		h-3.785v-33.141H391.391z M382.729,156.502h8.52c5.972,0,9.426-2.65,9.426-7.811c0-5.02-3.454-7.576-9.426-7.576h-8.52V156.502z"/>
	<path fill="#FFFFFF" d="M413.789,151.201c1.657-3.646,4.737-5.635,8.949-5.682v3.739c-5.259-0.094-8.521,3.173-8.949,8.097v13.257
		h-3.693v-24.951h3.693V151.201z"/>
	<path fill="#FFFFFF" d="M431.925,138.512c0,1.469-1.042,2.557-2.415,2.557s-2.416-1.088-2.416-2.557
		c0-1.468,1.043-2.558,2.416-2.558S431.925,137.044,431.925,138.512z M427.712,170.612v-24.951h3.646v24.951H427.712z"/>
	<path fill="#FFFFFF" d="M463.17,155.225v15.387h-3.691v-14.393c0-4.403-2.652-7.008-7.056-7.008
		c-4.923,0.047-7.954,3.267-8.379,8.002v13.398h-3.694v-24.951h3.694v5.492c1.754-3.787,5.114-5.587,9.657-5.634
		C459.665,145.519,463.17,149.211,463.17,155.225z"/>
	<path fill="#FFFFFF" d="M484.291,168.908c-1.754,1.183-3.646,1.847-5.635,1.894c-3.646,0-6.344-2.179-6.344-7.103V149.45h-3.598
		v-2.982h3.598v-6.581h3.646v6.581l7.904-0.049v3.031h-7.904v13.589c0,3.027,1.184,4.166,3.313,4.166
		c1.277,0,2.604-0.429,3.976-1.279L484.291,168.908z"/>
	<path fill="#FFFFFF" d="M488.41,157.638v-2.745h11.127v2.745H488.41z"/>
	<path fill="#FFFFFF" d="M538.406,165.735c-3.027,3.221-6.531,5.066-10.271,5.066c-5.495,0-9.849-3.882-9.849-9.089
		c0-4.83,3.647-7.34,7.527-9.423c-2.271-2.936-3.406-5.398-3.406-7.812c0-4.166,3.265-7.148,8.094-7.148
		c4.592,0,7.672,2.744,7.672,6.675c0,4.496-4.074,6.817-8.193,8.996c2.038,2.366,4.735,5.113,8.051,8.379
		c1.279-1.8,2.414-3.978,3.408-6.438l2.507,1.941c-1.087,2.51-2.317,4.733-3.739,6.628l5.729,5.634l-1.989,2.083L538.406,165.735z
		 M536.277,163.604c-3.646-3.645-6.627-6.675-8.855-9.278c-3.266,1.8-6.012,3.788-6.012,7.102c0,3.739,3.033,6.346,6.867,6.346
		C531.115,167.773,533.863,166.255,536.277,163.604z M528.324,151.01c3.647-1.895,6.816-3.693,6.816-7.006
		c0-2.462-1.797-4.118-4.639-4.118c-3.08,0-5.066,1.985-5.066,4.545C525.436,146.371,526.43,148.456,528.324,151.01z"/>
	<path fill="#FFFFFF" d="M592.477,170.612l-8.947-27.934l-9.043,27.934h-3.883l-11.078-33.141h4.07l9.092,28.736l8.994-28.689
		l3.787-0.047l9.094,28.736l8.993-28.736h3.93l-11.128,33.141H592.477z"/>
	<path fill="#FFFFFF" d="M631.067,159.58h-20.356c0.662,4.877,4.211,7.955,9.041,7.955c3.078,0,5.775-1.089,7.718-3.125l2.034,2.179
		c-2.367,2.649-5.871,4.166-10.038,4.166c-7.337,0-12.401-5.161-12.401-12.593c0-7.435,5.111-12.596,12.354-12.596
		C627.47,145.519,631.443,151.106,631.067,159.58z M627.755,156.55c-0.237-4.782-3.461-7.812-8.336-7.812
		c-4.735,0-8.143,3.077-8.708,7.812H627.755z"/>
	<path fill="#FFFFFF" d="M662.932,158.207c0,7.387-4.828,12.548-11.885,12.548c-4.449,0-7.855-2.037-9.704-5.491v5.349h-3.691
		v-35.13h3.691v15.577c1.849-3.504,5.255-5.54,9.61-5.54C658.01,145.519,662.932,150.727,662.932,158.207z M659.193,158.114
		c0-5.352-3.69-9.28-8.9-9.28c-5.256,0-8.95,3.883-8.95,9.28c0,5.443,3.694,9.277,8.95,9.277
		C655.503,167.391,659.193,163.51,659.193,158.114z"/>
	<path fill="#FFFFFF" d="M692.336,170.612h-3.691v-5.349c-1.846,3.501-5.254,5.538-9.706,5.538c-7.101,0-12.025-5.257-12.025-12.688
		c0-7.48,4.925-12.642,11.979-12.642c4.452,0,7.907,2.036,9.753,5.587v-15.577h3.691V170.612z M688.645,158.207
		c0-5.444-3.742-9.373-8.996-9.373c-5.304,0-9.043,3.929-9.043,9.373c0,5.397,3.739,9.281,9.043,9.281
		C684.902,167.488,688.645,163.604,688.645,158.207z"/>
	<path fill="#FFFFFF" d="M723.063,159.58h-20.356c0.664,4.877,4.215,7.955,9.045,7.955c3.076,0,5.773-1.089,7.714-3.125l2.038,2.179
		c-2.365,2.649-5.873,4.166-10.037,4.166c-7.342,0-12.404-5.161-12.404-12.593c0-7.435,5.112-12.596,12.355-12.596
		C719.466,145.519,723.445,151.106,723.063,159.58z M719.751,156.55c-0.238-4.782-3.457-7.812-8.333-7.812
		c-4.733,0-8.141,3.077-8.711,7.812H719.751z"/>
	<path fill="#FFFFFF" d="M743.992,147.792l-1.418,2.936c-1.941-1.23-4.45-2.035-6.77-2.035c-2.795,0-4.924,0.994-4.924,3.314
		c0,5.538,13.918,2.697,13.918,11.646c0,4.924-4.354,7.103-9.138,7.103c-3.548,0-7.195-1.231-9.562-3.503l1.422-2.795
		c2.129,1.989,5.346,3.173,8.283,3.173c2.934,0,5.301-1.089,5.349-3.551c0.142-6.012-13.823-2.935-13.774-11.789
		c0-4.781,4.115-6.771,8.662-6.771C739.023,145.519,741.912,146.371,743.992,147.792z"/>
	<path fill="#FFFFFF" d="M755.074,138.512c0,1.469-1.043,2.557-2.416,2.557s-2.415-1.088-2.415-2.557
		c0-1.468,1.042-2.558,2.415-2.558S755.074,137.044,755.074,138.512z M750.861,170.612v-24.951h3.646v24.951H750.861z"/>
	<path fill="#FFFFFF" d="M785.233,168.007c0,7.29-4.97,11.884-12.546,11.884c-3.93-0.048-7.197-1.324-10.228-3.598l1.706-2.842
		c2.462,2.037,5.065,3.125,8.378,3.173c5.446,0,8.998-3.314,8.998-8.522v-3.788c-1.754,3.315-4.972,5.209-9.187,5.209
		c-6.722,0-11.361-4.972-11.361-12.072c0-6.96,4.593-11.885,11.265-11.932c4.265,0,7.482,1.894,9.283,5.208v-5.066h3.691V168.007z
		 M781.542,157.591c0-5.208-3.552-8.853-8.522-8.853c-5.02,0-8.523,3.692-8.571,8.853c0.048,5.113,3.552,8.807,8.571,8.807
		C777.99,166.398,781.542,162.705,781.542,157.591z"/>
	<path fill="#FFFFFF" d="M816.433,155.225v15.387h-3.692v-14.393c0-4.403-2.65-7.008-7.054-7.008
		c-4.923,0.047-7.952,3.267-8.378,8.002v13.398h-3.694v-24.951h3.694v5.492c1.752-3.787,5.112-5.587,9.656-5.634
		C812.932,145.519,816.433,149.211,816.433,155.225z"/>
</g>
<g>
	<path fill="#FFFFFF" d="M298.626,39.315l-14.323,16.952c-5.254-6.686-13.014-11.103-19.938-11.103
		c-11.343,0-19.938,9.192-19.938,21.489c0,12.296,8.595,21.607,19.938,21.607c6.447,0,14.203-3.82,19.938-9.67l14.323,15.281
		c-9.072,9.789-22.801,16.117-35.454,16.117c-25.429,0-44.171-18.385-44.171-43.096c0-24.354,19.1-42.38,45.006-42.38
		C276.662,24.513,290.15,30.242,298.626,39.315z"/>
	<path fill="#FFFFFF" d="M372.276,76.442c0,20.057-14.206,33.308-36.054,33.308c-21.846,0-36.17-13.251-36.17-33.308
		c0-20.175,14.324-33.308,36.17-33.308C358.07,43.134,372.276,56.267,372.276,76.442z M324.403,76.681
		c0,8.714,4.657,14.445,11.819,14.445c7.045,0,11.699-5.731,11.699-14.445c0-8.595-4.654-14.445-11.699-14.445
		C329.061,62.236,324.403,68.086,324.403,76.681z"/>
	<path fill="#FFFFFF" d="M405.934,54.238c4.537-7.163,11.58-11.222,20.415-11.222v21.726c-12.417-1.551-20.415,3.702-20.415,13.132
		v31.039H381.82V43.97h24.113V54.238z"/>
	<path fill="#FFFFFF" d="M497.852,82.291h-43.693c1.91,6.208,6.443,9.672,12.654,9.672c5.132,0,10.026-2.27,14.324-6.208
		l12.535,12.295c-6.805,7.521-16.595,11.7-28.89,11.7c-21.728,0-34.979-13.133-34.979-33.068c0-20.294,13.727-33.547,34.264-33.547
		C486.867,43.134,499.283,58.415,497.852,82.291z M474.092,70.474c0.12-6.447-3.938-10.983-9.788-10.983
		c-5.609,0-9.43,4.416-10.624,10.983H474.092z"/>
	<path fill="#FFFFFF" d="M582.127,39.315l-14.326,16.952c-5.254-6.686-13.014-11.103-19.939-11.103
		c-11.34,0-19.936,9.192-19.936,21.489c0,12.296,8.596,21.607,19.936,21.607c6.447,0,14.209-3.82,19.939-9.67l14.326,15.281
		c-9.072,9.789-22.803,16.117-35.456,16.117c-25.43,0-44.172-18.385-44.172-43.096c0-24.354,19.101-42.38,45.006-42.38
		C560.16,24.513,573.649,30.242,582.127,39.315z"/>
	<path fill="#FFFFFF" d="M655.057,108.914h-24.115v-9.669c-4.416,6.923-11.222,10.744-19.936,10.744
		c-13.609,0-22.922-9.67-22.922-24.832V43.97H612.2v34.382c0,6.327,3.462,10.386,8.714,10.386
		c6.208-0.119,10.027-5.251,10.027-12.654V43.97h24.115V108.914z"/>
	<path fill="#FFFFFF" d="M742.195,76.8c0,19.937-11.578,32.95-29.485,32.95c-7.641,0-13.968-2.985-18.384-8.356v7.521H670.21v-88.58
		h24.116v31.159c4.295-5.372,10.504-8.358,17.784-8.358C730.259,43.134,742.195,56.506,742.195,76.8z M717.842,76.204
		c0-8.595-4.654-14.445-11.817-14.445c-6.925,0-11.698,5.85-11.698,14.445c0,8.596,4.773,14.445,11.698,14.445
		C713.188,90.649,717.842,84.799,717.842,76.204z"/>
	<path fill="#FFFFFF" d="M814.771,82.291h-43.695c1.912,6.208,6.447,9.672,12.655,9.672c5.134,0,10.028-2.27,14.327-6.208
		l12.533,12.295c-6.805,7.521-16.593,11.7-28.889,11.7c-21.729,0-34.979-13.133-34.979-33.068c0-20.294,13.729-33.547,34.263-33.547
		C803.787,43.134,816.203,58.415,814.771,82.291z M791.014,70.474c0.12-6.447-3.939-10.983-9.788-10.983
		c-5.61,0-9.431,4.416-10.626,10.983H791.014z"/>
</g>
</svg>
