<?xml version="1.0" encoding="utf-8"?>
<!-- Generator: Adobe Illustrator 21.0.2, SVG Export Plug-In . SVG Version: 6.00 Build 0)  -->
<svg version="1.1" id="Ebene_1" xmlns="http://www.w3.org/2000/svg" xmlns:xlink="http://www.w3.org/1999/xlink" x="0px" y="0px"
	 viewBox="0 0 814.8 200.2" style="enable-background:new 0 0 814.8 200.2;" xml:space="preserve">
<style type="text/css">
	.st0{fill:#FFFFFF;}
</style>
<polygon class="st0" points="86.5,72.6 61.7,87.5 61.7,118.3 86.5,133.4 111.3,118.3 111.3,87.5 "/>
<path class="st0" d="M30.7,34.8"/>
<g>
	<path class="st0" d="M248.6,154.4v12c-3.3,2.6-7.9,4.4-12.3,4.4c-9.6,0-17.3-7.4-17.3-16.8c0-9.3,7.7-16.7,17.5-16.7
		c4.6,0,9,1.8,12.2,4.5l-2.2,2.8c-2.7-2.4-6.3-3.8-10-3.8c-7.6,0-13.6,5.8-13.6,13.1s6.1,13.2,13.7,13.2c3,0,6.2-1,8.7-2.8v-10
		L248.6,154.4L248.6,154.4z"/>
	<path class="st0" d="M261,151.2c1.7-3.6,4.7-5.6,8.9-5.7v3.7c-5.3-0.1-8.5,3.2-8.9,8.1v13.3h-3.7v-25h3.7V151.2z"/>
	<path class="st0" d="M289.2,166.8c-2,2.7-5.2,4-9.1,4c-5.2,0-8.5-3.3-8.5-7.6c0-4.4,3.5-7.1,9.3-7.1h8.2v-1.5
		c0-3.6-2.3-5.8-6.7-5.8c-2.7,0-5.3,1-7.9,2.8l-1.6-2.7c3.2-2.1,5.9-3.4,10.2-3.4c6.2,0,9.6,3.3,9.6,8.6v16.5h-3.6L289.2,166.8
		L289.2,166.8z M289.1,162v-3h-7.8c-4.2,0-6.3,1.3-6.3,4s2.2,4.5,5.7,4.5C285,167.6,288.2,165.5,289.1,162z"/>
	<path class="st0" d="M301.8,143.5c0-5.5,3.9-8.4,8-8.4c1.6,0,3.2,0.5,4.5,1.3l-0.1,3.5c-1.4-0.8-2.9-1.2-4.4-1.2
		c-2.5,0-4.4,1.5-4.4,4.4v3.2h7.1v3h-7.1v21.3h-3.6v-21.3h-3.2v-3h3.2V143.5L301.8,143.5z M315.8,138.5c0-1.5,1-2.6,2.4-2.6
		s2.4,1.1,2.4,2.6s-1,2.6-2.4,2.6S315.8,140,315.8,138.5z M320,145.7v25h-3.7v-25H320z"/>
	<path class="st0" d="M332.9,163.5v7.1h-3.7v-35.1h3.7v23l12.8-12.8h4.4l-9.3,9.7l10.3,15.3h-4.4l-8.5-12.6L332.9,163.5z"/>
	<path class="st0" d="M358.6,168.6c0,0.8-0.3,1.4-0.7,2l-2.2,3.4h-2.1l1.6-3.5c-0.7-0.4-1-1.2-1-2c0-1.4,0.9-2.4,2.2-2.4
		C357.6,166.2,358.6,167.1,358.6,168.6z"/>
	<path class="st0" d="M391.4,137.5c8.2,0,12.9,4.1,12.9,11.1c0,7.3-4.7,11.6-12.9,11.6h-8.7v10.5h-3.8v-33.1L391.4,137.5
		L391.4,137.5z M382.7,156.5h8.5c6,0,9.4-2.6,9.4-7.8c0-5-3.5-7.6-9.4-7.6h-8.5V156.5z"/>
	<path class="st0" d="M413.8,151.2c1.7-3.6,4.7-5.6,8.9-5.7v3.7c-5.3-0.1-8.5,3.2-8.9,8.1v13.3h-3.7v-25h3.7V151.2z"/>
	<path class="st0" d="M431.9,138.5c0,1.5-1,2.6-2.4,2.6s-2.4-1.1-2.4-2.6s1-2.6,2.4-2.6S431.9,137,431.9,138.5z M427.7,170.6v-25
		h3.6v25H427.7z"/>
	<path class="st0" d="M463.2,155.2v15.4h-3.7v-14.4c0-4.4-2.7-7-7.1-7c-4.9,0-8,3.3-8.4,8v13.4h-3.7v-25h3.7v5.5
		c1.8-3.8,5.1-5.6,9.7-5.6C459.7,145.5,463.2,149.2,463.2,155.2z"/>
	<path class="st0" d="M484.3,168.9c-1.8,1.2-3.6,1.8-5.6,1.9c-3.6,0-6.3-2.2-6.3-7.1v-14.2h-3.6v-3h3.6v-6.6h3.6v6.6h7.9v3H476V163
		c0,3,1.2,4.2,3.3,4.2c1.3,0,2.6-0.4,4-1.3L484.3,168.9z"/>
	<path class="st0" d="M488.4,157.6v-2.7h11.1v2.7H488.4z"/>
	<path class="st0" d="M538.4,165.7c-3,3.2-6.5,5.1-10.3,5.1c-5.5,0-9.8-3.9-9.8-9.1c0-4.8,3.6-7.3,7.5-9.4c-2.3-2.9-3.4-5.4-3.4-7.8
		c0-4.2,3.3-7.1,8.1-7.1c4.6,0,7.7,2.7,7.7,6.7c0,4.5-4.1,6.8-8.2,9c2,2.4,4.7,5.1,8.1,8.4c1.3-1.8,2.4-4,3.4-6.4l2.5,1.9
		c-1.1,2.5-2.3,4.7-3.7,6.6l5.7,5.6l-2,2.1L538.4,165.7z M536.3,163.6c-3.6-3.6-6.6-6.7-8.9-9.3c-3.3,1.8-6,3.8-6,7.1
		c0,3.7,3,6.3,6.9,6.3C531.1,167.8,533.9,166.3,536.3,163.6z M528.3,151c3.6-1.9,6.8-3.7,6.8-7c0-2.5-1.8-4.1-4.6-4.1
		c-3.1,0-5.1,2-5.1,4.5C525.4,146.4,526.4,148.5,528.3,151z"/>
	<path class="st0" d="M592.5,170.6l-8.9-27.9l-9,27.9h-3.9l-11.1-33.1h4.1l9.1,28.7l9-28.7h3.8l9.1,28.7l9-28.7h3.9l-11.1,33.1
		H592.5z"/>
	<path class="st0" d="M631.1,159.6h-20.4c0.7,4.9,4.2,8,9,8c3.1,0,5.8-1.1,7.7-3.1l2,2.2c-2.4,2.6-5.9,4.2-10,4.2
		c-7.3,0-12.4-5.2-12.4-12.6c0-7.4,5.1-12.6,12.4-12.6C627.5,145.5,631.4,151.1,631.1,159.6z M627.8,156.5c-0.2-4.8-3.5-7.8-8.3-7.8
		c-4.7,0-8.1,3.1-8.7,7.8H627.8z"/>
	<path class="st0" d="M662.9,158.2c0,7.4-4.8,12.5-11.9,12.5c-4.4,0-7.9-2-9.7-5.5v5.3h-3.7v-35.1h3.7V151c1.8-3.5,5.3-5.5,9.6-5.5
		C658,145.5,662.9,150.7,662.9,158.2z M659.2,158.1c0-5.4-3.7-9.3-8.9-9.3c-5.3,0-9,3.9-9,9.3c0,5.4,3.7,9.3,9,9.3
		C655.5,167.4,659.2,163.5,659.2,158.1z"/>
	<path class="st0" d="M692.3,170.6h-3.7v-5.3c-1.8,3.5-5.3,5.5-9.7,5.5c-7.1,0-12-5.3-12-12.7c0-7.5,4.9-12.6,12-12.6
		c4.5,0,7.9,2,9.8,5.6v-15.6h3.7L692.3,170.6L692.3,170.6z M688.6,158.2c0-5.4-3.7-9.4-9-9.4s-9,3.9-9,9.4c0,5.4,3.7,9.3,9,9.3
		C684.9,167.5,688.6,163.6,688.6,158.2z"/>
	<path class="st0" d="M723.1,159.6h-20.4c0.7,4.9,4.2,8,9,8c3.1,0,5.8-1.1,7.7-3.1l2,2.2c-2.4,2.6-5.9,4.2-10,4.2
		c-7.3,0-12.4-5.2-12.4-12.6c0-7.4,5.1-12.6,12.4-12.6C719.5,145.5,723.4,151.1,723.1,159.6z M719.8,156.5c-0.2-4.8-3.5-7.8-8.3-7.8
		c-4.7,0-8.1,3.1-8.7,7.8H719.8z"/>
	<path class="st0" d="M744,147.8l-1.4,2.9c-1.9-1.2-4.5-2-6.8-2c-2.8,0-4.9,1-4.9,3.3c0,5.5,13.9,2.7,13.9,11.6
		c0,4.9-4.4,7.1-9.1,7.1c-3.5,0-7.2-1.2-9.6-3.5l1.4-2.8c2.1,2,5.3,3.2,8.3,3.2c2.9,0,5.3-1.1,5.3-3.6c0.1-6-13.8-2.9-13.8-11.8
		c0-4.8,4.1-6.8,8.7-6.8C739,145.5,741.9,146.4,744,147.8z"/>
	<path class="st0" d="M755.1,138.5c0,1.5-1,2.6-2.4,2.6s-2.4-1.1-2.4-2.6s1-2.6,2.4-2.6S755.1,137,755.1,138.5z M750.9,170.6v-25
		h3.6v25H750.9z"/>
	<path class="st0" d="M785.2,168c0,7.3-5,11.9-12.5,11.9c-3.9,0-7.2-1.3-10.2-3.6l1.7-2.8c2.5,2,5.1,3.1,8.4,3.2c5.4,0,9-3.3,9-8.5
		v-3.8c-1.8,3.3-5,5.2-9.2,5.2c-6.7,0-11.4-5-11.4-12.1c0-7,4.6-11.9,11.3-11.9c4.3,0,7.5,1.9,9.3,5.2v-5.1h3.7L785.2,168L785.2,168
		z M781.5,157.6c0-5.2-3.6-8.9-8.5-8.9c-5,0-8.5,3.7-8.6,8.9c0,5.1,3.6,8.8,8.6,8.8C778,166.4,781.5,162.7,781.5,157.6z"/>
	<path class="st0" d="M816.4,155.2v15.4h-3.7v-14.4c0-4.4-2.7-7-7.1-7c-4.9,0-8,3.3-8.4,8v13.4h-3.7v-25h3.7v5.5
		c1.8-3.8,5.1-5.6,9.7-5.6C812.9,145.5,816.4,149.2,816.4,155.2z"/>
</g>
<g>
	<path class="st0" d="M298.6,39.3l-14.3,17c-5.3-6.7-13-11.1-19.9-11.1c-11.3,0-19.9,9.2-19.9,21.5s8.6,21.6,19.9,21.6
		c6.4,0,14.2-3.8,19.9-9.7l14.3,15.3c-9.1,9.8-22.8,16.1-35.5,16.1c-25.4,0-44.2-18.4-44.2-43.1c0-24.4,19.1-42.4,45-42.4
		C276.7,24.5,290.1,30.2,298.6,39.3z"/>
	<path class="st0" d="M372.3,76.4c0,20.1-14.2,33.3-36.1,33.3c-21.8,0-36.2-13.3-36.2-33.3c0-20.2,14.3-33.3,36.2-33.3
		C358.1,43.1,372.3,56.3,372.3,76.4z M324.4,76.7c0,8.7,4.7,14.4,11.8,14.4c7,0,11.7-5.7,11.7-14.4c0-8.6-4.7-14.4-11.7-14.4
		C329.1,62.2,324.4,68.1,324.4,76.7z"/>
	<path class="st0" d="M405.9,54.2C410.4,47,417.5,43,426.3,43v21.7c-12.4-1.6-20.4,3.7-20.4,13.1v31h-24.1V44h24.1V54.2L405.9,54.2z
		"/>
	<path class="st0" d="M497.9,82.3h-43.7c1.9,6.2,6.4,9.7,12.7,9.7c5.1,0,10-2.3,14.3-6.2L493.7,98c-6.8,7.5-16.6,11.7-28.9,11.7
		c-21.7,0-35-13.1-35-33.1c0-20.3,13.7-33.5,34.3-33.5C486.9,43.1,499.3,58.4,497.9,82.3z M474.1,70.5c0.1-6.4-3.9-11-9.8-11
		c-5.6,0-9.4,4.4-10.6,11H474.1z"/>
	<path class="st0" d="M582.1,39.3l-14.3,17c-5.3-6.7-13-11.1-19.9-11.1c-11.3,0-19.9,9.2-19.9,21.5s8.6,21.6,19.9,21.6
		c6.4,0,14.2-3.8,19.9-9.7l14.3,15.3c-9.1,9.8-22.8,16.1-35.5,16.1c-25.4,0-44.2-18.4-44.2-43.1c0-24.4,19.1-42.4,45-42.4
		C560.2,24.5,573.6,30.2,582.1,39.3z"/>
	<path class="st0" d="M655.1,108.9H631v-9.7c-4.4,6.9-11.2,10.7-19.9,10.7c-13.6,0-22.9-9.7-22.9-24.8V44h24.1v34.4
		c0,6.3,3.5,10.4,8.7,10.4c6.2-0.1,10-5.3,10-12.7V44h24.1L655.1,108.9L655.1,108.9z"/>
	<path class="st0" d="M742.2,76.8c0,19.9-11.6,32.9-29.5,32.9c-7.6,0-14-3-18.4-8.4v7.5h-24.1V20.3h24.1v31.2
		c4.3-5.4,10.5-8.4,17.8-8.4C730.3,43.1,742.2,56.5,742.2,76.8z M717.8,76.2c0-8.6-4.7-14.4-11.8-14.4c-6.9,0-11.7,5.8-11.7,14.4
		s4.8,14.4,11.7,14.4C713.2,90.6,717.8,84.8,717.8,76.2z"/>
	<path class="st0" d="M814.8,82.3h-43.7c1.9,6.2,6.4,9.7,12.7,9.7c5.1,0,10-2.3,14.3-6.2L810.6,98c-6.8,7.5-16.6,11.7-28.9,11.7
		c-21.7,0-35-13.1-35-33.1c0-20.3,13.7-33.5,34.3-33.5C803.8,43.1,816.2,58.4,814.8,82.3z M791,70.5c0.1-6.4-3.9-11-9.8-11
		c-5.6,0-9.4,4.4-10.6,11H791z"/>
</g>
<path class="st0" d="M86.5,0.1L0,53.2v0.2v91.4v2.2l86.5,53.2L173,147v-2.2V53.4v-0.2L86.5,0.1z M142,130.1l-55.5,34.1L31,130.1
	V70.2l55.5-34.1L142,70.2V130.1z"/>
</svg>
